<?xml version="1.0" standalone="no"?>
<!DOCTYPE svg PUBLIC "-//W3C//DTD SVG 20010904//EN"
 "http://www.w3.org/TR/2001/REC-SVG-20010904/DTD/svg10.dtd">
<svg version="1.0" xmlns="http://www.w3.org/2000/svg"
 width="128.000000pt" height="128.000000pt" viewBox="0 0 128.000000 128.000000"
 preserveAspectRatio="xMidYMid meet">
<metadata>
Created by potrace 1.13, written by Peter Selinger 2001-2015
</metadata>
<g transform="translate(0.000000,128.000000) scale(0.100000,-0.100000)"
fill="#000000" stroke="none">
<path d="M570 1271 c-120 -39 -196 -126 -207 -237 -4 -41 0 -70 17 -121 47
-140 102 -217 181 -252 l38 -17 -90 -12 c-195 -26 -301 -98 -350 -237 -24 -69
-41 -191 -37 -265 l3 -54 47 -18 c25 -9 86 -24 135 -33 103 -19 453 -33 453
-18 0 5 -13 22 -29 37 -16 15 -42 56 -57 89 -24 52 -29 75 -29 146 l0 83 -97
102 c-81 86 -94 102 -80 111 10 5 91 10 182 10 118 1 172 5 190 15 23 13 24
13 4 21 -11 4 -51 10 -88 14 l-68 7 39 18 c90 40 180 186 190 311 15 172 -90
297 -257 305 -36 2 -76 0 -90 -5z m276 -267 c12 -46 -3 -132 -32 -184 -34 -63
-81 -105 -134 -121 -55 -17 -117 8 -170 68 -35 41 -81 145 -69 157 2 3 26 0
52 -6 66 -14 129 3 192 52 86 67 150 80 161 34z"/>
</g>
</svg>
